<svg width="101" height="23" viewBox="0 0 101 23" fill="none" xmlns="http://www.w3.org/2000/svg">
<path d="M76.52 13.592H69.536L68.336 17H65.48L71.456 0.29599H74.624L80.6 17H77.72L76.52 13.592ZM75.752 11.36L73.04 3.60799L70.304 11.36H75.752Z" fill="#0071E2"/>
<path d="M94.8624 5.28799C94.8624 6.13599 94.6624 6.93599 94.2624 7.68799C93.8624 8.43999 93.2224 9.05599 92.3424 9.53599C91.4624 9.99999 90.3344 10.232 88.9584 10.232H85.9344V17H83.1984V0.31999H88.9584C90.2384 0.31999 91.3184 0.54399 92.1984 0.99199C93.0944 1.42399 93.7584 2.01599 94.1904 2.76799C94.6384 3.51999 94.8624 4.35999 94.8624 5.28799ZM88.9584 7.99999C89.9984 7.99999 90.7744 7.76799 91.2864 7.30399C91.7984 6.82399 92.0544 6.15199 92.0544 5.28799C92.0544 3.46399 91.0224 2.55199 88.9584 2.55199H85.9344V7.99999H88.9584Z" fill="#0071E2"/>
<path d="M100.208 0.31999V17H97.4719V0.31999H100.208Z" fill="#0071E2"/>
<path d="M14.504 17H11.768L3.53599 4.54399V17H0.799988V0.29599H3.53599L11.768 12.728V0.29599H14.504V17Z" fill="#222222"/>
<path d="M30.2169 10.064C30.2169 10.56 30.1849 11.008 30.1209 11.408H20.0169C20.0969 12.464 20.4889 13.312 21.1929 13.952C21.8969 14.592 22.7609 14.912 23.7849 14.912C25.2569 14.912 26.2969 14.296 26.9049 13.064H29.8569C29.4569 14.28 28.7289 15.28 27.6729 16.064C26.6329 16.832 25.3369 17.216 23.7849 17.216C22.5209 17.216 21.3849 16.936 20.3769 16.376C19.3849 15.8 18.6009 15 18.0249 13.976C17.4649 12.936 17.1849 11.736 17.1849 10.376C17.1849 9.01599 17.4569 7.82399 18.0009 6.79999C18.5609 5.75999 19.3369 4.95999 20.3289 4.39999C21.3369 3.83999 22.4889 3.55999 23.7849 3.55999C25.0329 3.55999 26.1449 3.83199 27.1209 4.37599C28.0969 4.91999 28.8569 5.68799 29.4009 6.67999C29.9449 7.65599 30.2169 8.78399 30.2169 10.064ZM27.3609 9.19999C27.3449 8.19199 26.9849 7.38399 26.2809 6.77599C25.5769 6.16799 24.7049 5.86399 23.6649 5.86399C22.7209 5.86399 21.9129 6.16799 21.2409 6.77599C20.5689 7.36799 20.1689 8.17599 20.0409 9.19999H27.3609Z" fill="#222222"/>
<path d="M50.6694 3.77599L46.5654 17H43.6854L41.0214 7.23199L38.3574 17H35.4774L31.3494 3.77599H34.1334L36.8934 14.408L39.7014 3.77599H42.5574L45.2454 14.36L47.9814 3.77599H50.6694Z" fill="#222222"/>
<path d="M57.514 17.216C56.474 17.216 55.5381 17.032 54.7061 16.664C53.8901 16.28 53.2421 15.768 52.7621 15.128C52.2821 14.472 52.026 13.744 51.994 12.944H54.826C54.874 13.504 55.138 13.976 55.618 14.36C56.114 14.728 56.73 14.912 57.466 14.912C58.234 14.912 58.8261 14.768 59.2421 14.48C59.6741 14.176 59.89 13.792 59.89 13.328C59.89 12.832 59.6501 12.464 59.1701 12.224C58.7061 11.984 57.962 11.72 56.938 11.432C55.946 11.16 55.138 10.896 54.514 10.64C53.89 10.384 53.346 9.99199 52.882 9.46399C52.434 8.93599 52.21 8.23999 52.21 7.37599C52.21 6.67199 52.418 6.03199 52.834 5.45599C53.25 4.86399 53.8421 4.39999 54.6101 4.06399C55.3941 3.72799 56.2901 3.55999 57.298 3.55999C58.8021 3.55999 60.0101 3.94399 60.9221 4.71199C61.8501 5.46399 62.346 6.49599 62.41 7.80799H59.674C59.626 7.21599 59.3861 6.74399 58.9541 6.39199C58.5221 6.03999 57.938 5.86399 57.202 5.86399C56.482 5.86399 55.9301 5.99999 55.5461 6.27199C55.1621 6.54399 54.9701 6.90399 54.9701 7.35199C54.9701 7.70399 55.098 7.99999 55.354 8.23999C55.61 8.47999 55.9221 8.67199 56.2901 8.81599C56.6581 8.94399 57.2021 9.11199 57.9221 9.31999C58.8821 9.57599 59.6661 9.83999 60.2741 10.112C60.8981 10.368 61.434 10.752 61.882 11.264C62.33 11.776 62.5621 12.456 62.5781 13.304C62.5781 14.056 62.3701 14.728 61.9541 15.32C61.5381 15.912 60.9461 16.376 60.1781 16.712C59.4261 17.048 58.538 17.216 57.514 17.216Z" fill="#222222"/>
<rect y="20" width="43" height="3" fill="#222222"/>
</svg>
