<svg width="103" height="36" viewBox="0 0 103 36" fill="none" xmlns="http://www.w3.org/2000/svg">
<path d="M15.504 26H12.768L4.536 13.544V26H1.8V9.296H4.536L12.768 21.728V9.296H15.504V26ZM31.2169 19.064C31.2169 19.56 31.1849 20.008 31.1209 20.408H21.0169C21.0969 21.464 21.4889 22.312 22.1929 22.952C22.8969 23.592 23.7609 23.912 24.7849 23.912C26.2569 23.912 27.2969 23.296 27.9049 22.064H30.8569C30.4569 23.28 29.7289 24.28 28.6729 25.064C27.6329 25.832 26.3369 26.216 24.7849 26.216C23.5209 26.216 22.3849 25.936 21.3769 25.376C20.3849 24.8 19.6009 24 19.0249 22.976C18.4649 21.936 18.1849 20.736 18.1849 19.376C18.1849 18.016 18.4569 16.824 19.0009 15.8C19.5609 14.76 20.3369 13.96 21.3289 13.4C22.3369 12.84 23.4889 12.56 24.7849 12.56C26.0329 12.56 27.1449 12.832 28.1209 13.376C29.0969 13.92 29.8569 14.688 30.4009 15.68C30.9449 16.656 31.2169 17.784 31.2169 19.064ZM28.3609 18.2C28.3449 17.192 27.9849 16.384 27.2809 15.776C26.5769 15.168 25.7049 14.864 24.6649 14.864C23.7209 14.864 22.9129 15.168 22.2409 15.776C21.5689 16.368 21.1689 17.176 21.0409 18.2H28.3609ZM51.6694 12.776L47.5654 26H44.6854L42.0214 16.232L39.3574 26H36.4774L32.3494 12.776H35.1334L37.8934 23.408L40.7014 12.776H43.5574L46.2454 23.36L48.9814 12.776H51.6694ZM58.5141 26.216C57.4741 26.216 56.5381 26.032 55.7061 25.664C54.8901 25.28 54.2421 24.768 53.7621 24.128C53.2821 23.472 53.0261 22.744 52.9941 21.944H55.8261C55.8741 22.504 56.1381 22.976 56.6181 23.36C57.1141 23.728 57.7301 23.912 58.4661 23.912C59.2341 23.912 59.8261 23.768 60.2421 23.48C60.6741 23.176 60.8901 22.792 60.8901 22.328C60.8901 21.832 60.6501 21.464 60.1701 21.224C59.7061 20.984 58.9621 20.72 57.9381 20.432C56.9461 20.16 56.1381 19.896 55.5141 19.64C54.8901 19.384 54.3461 18.992 53.8821 18.464C53.4341 17.936 53.2101 17.24 53.2101 16.376C53.2101 15.672 53.4181 15.032 53.8341 14.456C54.2501 13.864 54.8421 13.4 55.6101 13.064C56.3941 12.728 57.2901 12.56 58.2981 12.56C59.8021 12.56 61.0101 12.944 61.9221 13.712C62.8501 14.464 63.3461 15.496 63.4101 16.808H60.6741C60.6261 16.216 60.3861 15.744 59.9541 15.392C59.5221 15.04 58.9381 14.864 58.2021 14.864C57.4821 14.864 56.9301 15 56.5461 15.272C56.1621 15.544 55.9701 15.904 55.9701 16.352C55.9701 16.704 56.0981 17 56.3541 17.24C56.6101 17.48 56.9221 17.672 57.2901 17.816C57.6581 17.944 58.2021 18.112 58.9221 18.32C59.8821 18.576 60.6661 18.84 61.2741 19.112C61.8981 19.368 62.4341 19.752 62.8821 20.264C63.3301 20.776 63.5621 21.456 63.5781 22.304C63.5781 23.056 63.3701 23.728 62.9541 24.32C62.5381 24.912 61.9461 25.376 61.1781 25.712C60.4261 26.048 59.5381 26.216 58.5141 26.216Z" fill="#222222"/>
<path d="M76.5904 22.592H69.6064L68.4064 26H65.5504L71.5264 9.296H74.6944L80.6704 26H77.7904L76.5904 22.592ZM75.8224 20.36L73.1104 12.608L70.3744 20.36H75.8224ZM94.9328 14.288C94.9328 15.136 94.7328 15.936 94.3328 16.688C93.9328 17.44 93.2928 18.056 92.4128 18.536C91.5328 19 90.4048 19.232 89.0288 19.232H86.0048V26H83.2688V9.32H89.0288C90.3088 9.32 91.3888 9.544 92.2688 9.992C93.1648 10.424 93.8288 11.016 94.2608 11.768C94.7088 12.52 94.9328 13.36 94.9328 14.288ZM89.0288 17C90.0688 17 90.8448 16.768 91.3568 16.304C91.8688 15.824 92.1248 15.152 92.1248 14.288C92.1248 12.464 91.0928 11.552 89.0288 11.552H86.0048V17H89.0288ZM100.278 9.32V26H97.5422V9.32H100.278Z" fill="#0071E2"/>
<rect x="1" y="29" width="43" height="3" fill="#222222"/>
</svg>
