<svg width="100" height="23" viewBox="0 0 100 23" fill="none" xmlns="http://www.w3.org/2000/svg">
<path d="M14.504 17H11.768L3.536 4.54402V17H0.8V0.296021H3.536L11.768 12.728V0.296021H14.504V17Z" fill="#222222"/>
<path d="M30.2169 10.064C30.2169 10.56 30.1849 11.008 30.1209 11.408H20.0169C20.0969 12.464 20.4889 13.312 21.1929 13.952C21.8969 14.592 22.7609 14.912 23.7849 14.912C25.2569 14.912 26.2969 14.296 26.9049 13.064H29.8569C29.4569 14.28 28.7289 15.28 27.6729 16.064C26.6329 16.832 25.3369 17.216 23.7849 17.216C22.5209 17.216 21.3849 16.936 20.3769 16.376C19.3849 15.8 18.6009 15 18.0249 13.976C17.4649 12.936 17.1849 11.736 17.1849 10.376C17.1849 9.01602 17.4569 7.82402 18.0009 6.80002C18.5609 5.76002 19.3369 4.96002 20.3289 4.40002C21.3369 3.84002 22.4889 3.56002 23.7849 3.56002C25.0329 3.56002 26.1449 3.83202 27.1209 4.37602C28.0969 4.92002 28.8569 5.68802 29.4009 6.68002C29.9449 7.65602 30.2169 8.78402 30.2169 10.064ZM27.3609 9.20002C27.3449 8.19202 26.9849 7.38402 26.2809 6.77602C25.5769 6.16802 24.7049 5.86402 23.6649 5.86402C22.7209 5.86402 21.9129 6.16802 21.2409 6.77602C20.5689 7.36802 20.1689 8.17602 20.0409 9.20002H27.3609Z" fill="#222222"/>
<path d="M50.6694 3.77602L46.5654 17H43.6854L41.0214 7.23202L38.3574 17H35.4774L31.3494 3.77602H34.1334L36.8934 14.408L39.7014 3.77602H42.5574L45.2454 14.36L47.9814 3.77602H50.6694Z" fill="#222222"/>
<path d="M57.5141 17.216C56.4741 17.216 55.5381 17.032 54.7061 16.664C53.8901 16.28 53.2421 15.768 52.7621 15.128C52.2821 14.472 52.0261 13.744 51.9941 12.944H54.8261C54.8741 13.504 55.1381 13.976 55.6181 14.36C56.1141 14.728 56.7301 14.912 57.4661 14.912C58.2341 14.912 58.8261 14.768 59.2421 14.48C59.6741 14.176 59.8901 13.792 59.8901 13.328C59.8901 12.832 59.6501 12.464 59.1701 12.224C58.7061 11.984 57.9621 11.72 56.9381 11.432C55.9461 11.16 55.1381 10.896 54.5141 10.64C53.8901 10.384 53.3461 9.99202 52.8821 9.46402C52.4341 8.93602 52.2101 8.24002 52.2101 7.37602C52.2101 6.67202 52.4181 6.03202 52.8341 5.45602C53.2501 4.86402 53.8421 4.40002 54.6101 4.06402C55.3941 3.72802 56.2901 3.56002 57.2981 3.56002C58.8021 3.56002 60.0101 3.94402 60.9221 4.71202C61.8501 5.46402 62.3461 6.49602 62.4101 7.80802H59.6741C59.6261 7.21602 59.3861 6.74402 58.9541 6.39202C58.5221 6.04002 57.9381 5.86402 57.2021 5.86402C56.4821 5.86402 55.9301 6.00002 55.5461 6.27202C55.1621 6.54402 54.9701 6.90402 54.9701 7.35202C54.9701 7.70402 55.0981 8.00002 55.3541 8.24002C55.6101 8.48002 55.9221 8.67202 56.2901 8.81602C56.6581 8.94402 57.2021 9.11202 57.9221 9.32002C58.8821 9.57602 59.6661 9.84002 60.2741 10.112C60.8981 10.368 61.4341 10.752 61.8821 11.264C62.3301 11.776 62.5621 12.456 62.5781 13.304C62.5781 14.056 62.3701 14.728 61.9541 15.32C61.5381 15.912 60.9461 16.376 60.1781 16.712C59.4261 17.048 58.5381 17.216 57.5141 17.216Z" fill="#222222"/>
<path d="M75.5904 13.592H68.6064L67.4064 17H64.5504L70.5264 0.296021H73.6944L79.6704 17H76.7904L75.5904 13.592ZM74.8224 11.36L72.1104 3.60802L69.3744 11.36H74.8224Z" fill="#222222"/>
<path d="M93.9328 5.28802C93.9328 6.13602 93.7327 6.93602 93.3327 7.68802C92.9327 8.44002 92.2928 9.05602 91.4128 9.53602C90.5328 10 89.4047 10.232 88.0287 10.232H85.0048V17H82.2688V0.32002H88.0287C89.3087 0.32002 90.3888 0.54402 91.2688 0.99202C92.1648 1.42402 92.8287 2.01602 93.2607 2.76802C93.7087 3.52002 93.9328 4.36002 93.9328 5.28802ZM88.0287 8.00002C89.0687 8.00002 89.8448 7.76802 90.3568 7.30402C90.8688 6.82402 91.1247 6.15202 91.1247 5.28802C91.1247 3.46402 90.0927 2.55202 88.0287 2.55202H85.0048V8.00002H88.0287Z" fill="#222222"/>
<path d="M99.2782 0.32002V17H96.5422V0.32002H99.2782Z" fill="#222222"/>
<path d="M0 20H43V23H0V20Z" fill="#222222"/>
</svg>
